<svg width="32" height="32" viewBox="0 0 32 32" fill="none" xmlns="http://www.w3.org/2000/svg">
<rect width="32" height="32" rx="16" fill="white"/>
<path d="M22.8811 6.66669H16.4847C15.5491 6.66669 14.7877 7.42775 14.7877 8.3633V11.0359V14.7598C14.7877 15.9813 15.5491 16.4564 16.4847 16.4564H19.684H22.8811C23.8167 16.4564 24.5781 15.6953 24.5781 14.7598V8.36329C24.5781 7.42775 23.8167 6.66669 22.8811 6.66669ZM20.3455 10.7311V11.6451V13.2522V13.5416H19.9266H19.8276V12.0031V10.7311V10.0837H19.8123L19.1268 10.4569L19.0202 10.0456L19.8885 9.581H20.3455V10.7311Z" fill="#303030"/>
<path d="M22.2886 19.6042C22.2098 19.4004 22.0962 19.2539 21.9817 19.1237C21.814 18.9609 21.6356 18.8451 21.4345 18.7734C20.6799 18.254 20.2532 17.7174 19.954 16.9897H15.9323C15.0941 16.9897 14.1294 16.2106 14.1294 15.3727L14.1432 10.9551C14.1353 10.9541 14.1274 10.9529 14.1196 10.952C13.7265 10.9038 13.5341 10.9045 13.1436 10.9454L13.1281 10.9056C12.9804 10.5202 12.6897 10.2149 12.3101 10.0462C11.9305 9.87762 11.5087 9.8659 11.1246 10.0143C10.7395 10.1628 10.4345 10.4531 10.2655 10.8327C10.0969 11.2123 10.0855 11.6328 10.2336 12.0182L10.2465 12.0517C8.24114 13.5744 7.4697 16.2305 8.37716 18.5847L9.2592 20.888L9.25965 20.8906C9.54578 21.6452 9.58517 22.4824 9.37716 23.3789C9.15092 23.752 9.10763 24.2103 9.2629 24.614C9.26424 24.6174 9.26555 24.6207 9.26689 24.6242C9.46098 25.1164 10.0533 25.3222 10.5476 25.1336L21.7212 20.8693C21.8634 20.815 21.983 20.729 22.0811 20.6253C22.3317 20.3604 22.4267 19.9678 22.2886 19.6042ZM9.90906 17.9108C9.89408 17.9134 9.87911 17.9147 9.86446 17.9147C9.75509 17.9147 9.65743 17.8372 9.63562 17.7259C9.58419 17.459 9.55554 17.1862 9.55099 16.9141C9.54904 16.7852 9.65158 16.679 9.78048 16.6771H9.78439C9.91167 16.6771 10.0155 16.7787 10.0178 16.9063C10.0217 17.1511 10.0474 17.3971 10.094 17.6374C10.1184 17.7637 10.0357 17.8861 9.90906 17.9108ZM11.829 13.3399C11.5191 13.5599 11.2391 13.8203 10.9969 14.1139C10.6037 14.5918 10.313 15.1602 10.1561 15.7578C10.1288 15.8626 10.0341 15.9316 9.93054 15.9316C9.911 15.9316 9.89115 15.9297 9.87129 15.9245C9.74662 15.8913 9.67207 15.7643 9.70495 15.6393C9.87845 14.9772 10.2007 14.347 10.6369 13.8171C10.9051 13.4915 11.2154 13.2031 11.5594 12.9596C11.6636 12.8841 11.8098 12.9089 11.8846 13.015C11.9592 13.1198 11.9341 13.2656 11.829 13.3399Z" fill="#303030"/>
<path d="M16.1975 23.4882L15.7619 23.6557L13.05 24.6985L12.6092 24.868C12.9342 25.4703 13.5642 25.8336 14.2317 25.8336C14.4537 25.8336 14.6796 25.7939 14.899 25.7092L15.0664 25.6448C15.5253 25.4677 15.8896 25.1233 16.0927 24.6734C16.2636 24.2945 16.2936 23.8821 16.1975 23.4882Z" fill="#303030"/>
</svg>
